<?xml version="1.0" standalone="no"?>
<!DOCTYPE svg PUBLIC "-//W3C//DTD SVG 20010904//EN"
 "http://www.w3.org/TR/2001/REC-SVG-20010904/DTD/svg10.dtd">
<svg version="1.0" xmlns="http://www.w3.org/2000/svg"
 width="883.000000pt" height="1280.000000pt" viewBox="0 0 883.000000 1280.000000"
 preserveAspectRatio="xMidYMid meet">
<metadata>
Created by potrace 1.15, written by Peter Selinger 2001-2017
</metadata>
<g transform="translate(0.000000,1280.000000) scale(0.100000,-0.100000)"
fill="#ffffff" stroke="none">
<path d="M4272 12419 c-245 -56 -505 -98 -683 -109 -260 -16 -311 -25 -362
-64 -33 -25 -46 -45 -66 -101 -23 -64 -26 -84 -25 -230 0 -133 3 -174 22 -245
31 -119 59 -171 102 -192 84 -40 448 -95 765 -114 61 -4 116 -10 124 -14 8 -4
-44 -10 -115 -14 -275 -14 -611 -53 -652 -75 -11 -6 -27 -29 -36 -51 -43 -107
-49 -232 -16 -307 11 -25 19 -47 18 -48 -2 -2 -21 -11 -43 -20 -27 -12 -83
-20 -172 -25 -118 -7 -136 -10 -178 -35 -79 -46 -87 -76 -98 -360 -11 -302 -5
-401 28 -545 32 -136 47 -167 83 -182 18 -7 177 -13 456 -16 236 -2 423 -8
415 -12 -18 -10 -207 -28 -374 -36 -76 -3 -290 2 -517 12 -363 17 -394 17
-498 1 -61 -9 -115 -19 -121 -22 -5 -4 -9 -27 -9 -53 0 -46 1 -48 48 -72 41
-22 47 -29 44 -53 -2 -16 1 -34 6 -40 17 -23 21 -72 6 -91 -12 -17 -12 -22 3
-38 14 -16 14 -23 4 -56 -10 -28 -10 -44 -1 -67 9 -25 8 -31 -7 -42 -15 -11
-15 -17 -5 -33 15 -25 15 -49 -1 -80 -9 -16 -11 -36 -6 -55 5 -16 6 -39 3 -51
-3 -12 0 -32 6 -45 11 -19 9 -24 -11 -40 -20 -15 -22 -20 -11 -44 7 -14 12
-34 12 -43 0 -10 8 -29 17 -42 41 -58 15 -106 -68 -132 -36 -10 -39 -14 -39
-49 0 -31 5 -42 27 -56 24 -16 55 -18 282 -17 141 0 436 5 655 11 248 7 407 8
417 2 10 -5 111 -10 226 -10 l208 -2 -165 -12 c-268 -20 -340 -31 -367 -56
-47 -45 -66 -120 -71 -289 -7 -243 20 -317 132 -359 68 -25 177 -41 349 -50
134 -8 127 -8 -128 -10 -277 -2 -351 -8 -366 -32 -5 -8 -8 -32 -7 -54 3 -37 6
-41 46 -55 73 -27 93 -48 86 -87 -4 -22 -2 -33 6 -33 6 0 10 -8 8 -18 -2 -11
3 -26 10 -35 12 -14 9 -18 -17 -32 -30 -15 -42 -35 -21 -35 22 0 9 -40 -15
-46 -33 -8 -32 -22 3 -30 45 -10 52 -13 52 -24 0 -6 -11 -16 -25 -22 -26 -12
-31 -23 -15 -33 6 -3 10 -15 10 -27 0 -13 5 -18 13 -15 8 3 20 1 28 -4 12 -8
11 -12 -5 -24 -11 -8 -26 -15 -33 -15 -22 0 -14 -20 12 -30 24 -9 35 -30 15
-30 -5 0 -10 -5 -10 -11 0 -6 -7 -17 -15 -25 -8 -9 -15 -26 -15 -40 0 -20 -10
-29 -55 -49 -48 -21 -55 -28 -55 -52 0 -50 23 -70 87 -75 34 -3 74 -15 93 -27
19 -11 54 -23 78 -27 23 -3 41 -9 38 -11 -3 -3 -87 -12 -188 -20 -123 -10
-366 -15 -743 -17 -563 -4 -718 -12 -775 -41 -81 -42 -115 -139 -130 -371 -15
-243 12 -436 80 -580 17 -35 42 -71 55 -80 20 -13 66 -15 307 -13 248 1 608
-14 629 -27 4 -2 5 -13 2 -23 -3 -10 1 -30 8 -42 7 -13 14 -45 15 -71 2 -43 0
-47 -27 -57 -34 -12 -35 -15 -9 -51 l19 -27 -27 -12 -27 -13 29 -23 c25 -20
28 -26 17 -39 -8 -9 -10 -27 -6 -44 5 -24 2 -30 -14 -35 -24 -6 -29 -27 -7
-27 16 0 46 -26 46 -39 0 -5 -13 -11 -30 -14 -36 -8 -38 -22 -8 -47 22 -18 22
-19 5 -32 -18 -13 -17 -16 17 -53 42 -47 45 -65 12 -65 -31 0 -78 -18 -88 -33
-12 -19 -9 -51 6 -73 13 -18 28 -19 213 -19 208 0 258 -7 423 -58 l75 -23
-160 -31 c-88 -17 -263 -48 -390 -69 -126 -20 -248 -41 -269 -47 -48 -11 -91
-54 -122 -124 -32 -72 -74 -296 -74 -397 0 -159 45 -331 98 -373 68 -54 181
-83 367 -94 145 -8 309 -28 301 -36 -3 -3 -68 0 -145 7 -78 6 -145 8 -151 5
-13 -8 -13 -41 0 -65 5 -10 31 -25 58 -34 39 -13 50 -23 64 -54 17 -38 13 -49
-26 -66 -7 -3 -5 -10 6 -19 10 -8 15 -17 11 -20 -3 -4 1 -15 10 -25 15 -16 15
-19 -2 -29 -19 -12 -26 -63 -9 -63 6 0 4 -7 -3 -16 -11 -14 -10 -18 6 -30 18
-13 17 -15 -10 -40 -29 -27 -29 -27 -9 -43 18 -14 19 -19 7 -30 -12 -11 -12
-16 3 -32 9 -11 14 -22 11 -26 -4 -3 -2 -12 3 -18 8 -9 6 -14 -6 -19 -11 -4
-14 -13 -9 -35 6 -28 3 -31 -62 -66 l-68 -36 -197 10 c-109 6 -294 11 -412 11
-195 0 -216 -2 -237 -19 -39 -32 -32 -83 29 -200 29 -56 48 -101 42 -101 -16
0 -11 -40 6 -47 14 -5 13 -9 -7 -24 -21 -16 -22 -20 -10 -45 11 -25 10 -30 -8
-45 -16 -14 -20 -25 -16 -59 2 -24 8 -47 14 -53 6 -6 5 -16 -2 -29 -10 -16 -9
-22 8 -35 14 -11 16 -17 8 -20 -7 -3 -13 -13 -13 -23 0 -10 -5 -22 -10 -25
-13 -8 -4 -43 17 -66 12 -14 12 -17 -3 -23 -11 -4 -14 -13 -11 -29 5 -18 0
-25 -33 -39 -37 -15 -40 -19 -40 -57 0 -35 7 -49 48 -93 73 -82 125 -148 120
-153 -2 -3 -299 -45 -659 -94 -1052 -144 -1010 -140 -1224 -138 -202 1 -208 0
-275 -53 -18 -14 -56 -23 -140 -32 l-115 -13 -3 -578 -2 -577 4415 0 4415 0 0
523 0 522 -248 53 c-136 30 -454 96 -707 147 -382 78 -585 121 -751 160 -21 5
-21 8 -16 194 7 288 -21 535 -72 611 -17 27 -56 54 -147 104 -183 101 -237
139 -422 294 l-169 141 -63 6 c-34 4 -73 4 -85 0 -20 -6 -22 -4 -17 16 43 177
30 391 -33 521 -11 23 -20 45 -20 49 0 8 146 24 351 38 97 6 177 17 210 28
l54 18 0 45 c0 45 0 45 -47 60 -46 14 -60 31 -37 45 7 5 4 14 -7 27 -15 16
-16 23 -6 39 9 14 10 25 2 40 -9 15 -8 24 1 35 10 12 8 17 -6 28 -13 9 -16 20
-11 39 3 14 2 29 -4 32 -14 9 -12 52 3 58 9 3 9 9 -1 26 -10 17 -10 26 -2 36
7 9 9 27 5 45 -5 24 -3 35 12 45 14 11 16 16 6 26 -10 10 -7 19 15 42 15 17
22 31 16 34 -36 13 -45 28 -34 57 8 21 8 31 0 36 -6 4 -8 14 -5 23 4 8 2 25
-4 36 -10 18 -6 23 37 45 63 32 70 42 64 94 -3 34 -9 45 -28 52 -59 23 -225
31 -699 36 -280 3 -514 9 -518 13 -4 4 17 13 47 20 98 22 182 95 238 209 22
44 23 57 21 234 -1 103 -7 214 -13 245 -25 117 -109 243 -173 258 -57 13 -163
25 -282 32 -172 9 -113 22 110 22 315 2 636 42 955 120 190 47 250 82 250 147
0 26 -38 54 -74 54 -19 0 -47 5 -61 10 -23 9 -25 13 -15 26 11 12 10 20 -1 40
-11 21 -11 27 1 34 11 7 12 11 0 24 -7 9 -10 19 -7 22 3 3 1 19 -3 35 -5 17
-5 31 1 34 16 11 9 44 -11 50 -25 8 -26 35 -2 35 30 0 34 12 11 36 -13 14 -17
24 -10 29 18 10 13 25 -14 37 -34 15 -31 26 10 44 43 18 44 32 5 45 -33 12
-36 19 -18 37 10 10 10 17 -1 34 -11 18 -11 23 1 32 27 20 30 59 5 78 -12 9
-19 20 -15 24 4 4 38 12 75 18 l68 11 -1 48 c0 26 -5 52 -11 58 -12 12 -326
14 -345 3 -6 -4 -9 -3 -6 2 39 82 41 90 48 295 9 241 -1 443 -25 514 -27 79
-58 102 -152 110 -43 3 -96 10 -118 15 -104 24 -248 32 -485 26 -135 -4 -261
-9 -280 -11 -29 -4 -31 -3 -10 3 14 5 97 12 185 15 185 8 363 24 418 38 36 9
37 11 37 54 l0 45 -57 0 c-51 0 -55 1 -38 14 19 14 19 14 0 36 -19 21 -19 23
-2 35 21 15 22 31 2 39 -8 3 -15 14 -15 25 0 11 -5 23 -12 27 -7 5 -4 10 10
15 24 9 30 45 10 52 -10 3 -10 7 -2 18 18 22 28 79 14 79 -9 0 -10 3 -1 13 8
10 7 19 -4 33 -19 25 -19 30 6 53 12 11 18 24 15 29 -8 13 12 28 47 36 25 6
27 10 27 56 0 27 -5 52 -12 56 -7 4 -147 8 -313 8 -306 -1 -317 5 -51 25 237
18 540 87 667 152 53 27 86 71 111 152 20 64 23 92 23 247 -1 146 -5 190 -23
263 -26 102 -80 221 -126 272 -28 32 -39 36 -121 50 -49 8 -130 16 -180 19
-49 2 -130 12 -180 22 l-90 19 90 7 c166 14 411 101 524 186 33 25 33 26 28
87 -6 78 -10 85 -51 85 -47 0 -73 39 -42 61 5 4 -3 15 -18 24 -17 11 -23 21
-18 29 6 6 5 36 0 71 -10 70 -11 88 -6 135 3 19 1 50 -3 68 -4 17 -4 34 0 36
6 4 6 123 -1 199 -3 29 0 38 14 43 10 3 18 14 18 24 0 12 17 29 45 46 40 23
45 30 45 61 0 33 2 35 25 29 14 -4 35 -2 46 4 16 9 19 19 17 53 -3 39 -5 42
-37 47 l-34 5 -4 64 c-2 49 1 69 13 82 10 11 15 28 12 44 -5 21 -1 26 26 33
25 7 32 14 34 38 4 44 -14 83 -44 94 -26 10 -368 70 -499 88 l-70 9 75 2 c168
3 392 46 490 94 37 18 46 28 53 60 11 46 0 62 -48 71 -19 4 -43 18 -54 32 -20
25 -20 25 0 45 10 10 19 27 19 36 0 9 8 25 17 36 17 18 17 20 -10 39 -30 22
-35 38 -12 38 8 0 15 9 15 20 0 11 5 20 10 20 21 0 9 41 -15 52 -30 14 -38 49
-26 115 6 29 8 60 5 68 -4 9 0 15 9 15 8 0 20 7 28 16 10 13 10 17 -1 24 -11
7 -9 11 11 18 14 6 30 16 37 25 15 17 6 71 -15 88 -10 9 -107 10 -391 5 -427
-7 -450 -6 -990 69 -354 49 -426 53 -550 24z m46 -4776 c-21 -2 -55 -2 -75 0
-21 2 -4 4 37 4 41 0 58 -2 38 -4z m570 -2120 c-15 -2 -42 -2 -60 0 -18 2 -6
4 27 4 33 0 48 -2 33 -4z"/>
</g>
</svg>
